# xmcd
#
# Track frame offsets:
#	150
#	22145
#	44785
#	70325
#	108979
#	126566
#	143978
#	157112
#	186241
#	223722
#	250262
#	271720
#	287049
#	312482
#
# Disc length: 4686
#
# Revision: 3
# Processed by: cddbd v1.5.1PL0 Copyright (c) Steve Scherf et al.
# Submitted via: audiograbber 1.82.01
# Normalized: r2:DSETVAR1
#
DISCID=e7124c0e
DTITLE=Various Artist - Lounge Time 3
DYEAR=1900
DGENRE=
TTITLE0=Cash I/o - Sunset
TTITLE1=Groove Armada - My Friend
TTITLE2=Mo'horizon - Salto Angel
TTITLE3=Substanz T - Unite
TTITLE4=2 Men Ahead - Do You Remember (Yonderboi Mix)
TTITLE5=Jaffa - Bkly Bobbi
TTITLE6=Sunray Feat. Kym Mazelle - Perhaps (Radio Mix)
TTITLE7=Ian Pooley - Bay Of Plenty
TTITLE8=Geb.el - Love From The Sun
TTITLE9=Felka - Saightseeing In Paradise
TTITLE10=Estelle Montenegro - Essence Extended
TTITLE11=Pulser Sg - When It's Cold
TTITLE12=Boozoo Bajou - Yoruba Road
TTITLE13=Alphawezen - Into The Stars (Geb.el Rework)
EXTD=DanOakley\n
EXTT0=
EXTT1=
EXTT2=
EXTT3=
EXTT4=
EXTT5=
EXTT6=
EXTT7=
EXTT8=
EXTT9=
EXTT10=
EXTT11=
EXTT12=
EXTT13=
PLAYORDER=
